HIERARCHY
ROOT root
{
	OFFSET 0.000000 0.000000 0.000000
	CHANNELS 6 Xposition Yposition Zposition Zrotation Yrotation Xrotation
	JOINT lhip
	{
		OFFSET 0.058581 -0.082280 -0.017664
		CHANNELS 3 Zrotation Yrotation Xrotation
		JOINT lknee
		{
			OFFSET 0.043451 -0.386469 0.008037
			CHANNELS 3 Zrotation Yrotation Xrotation
			JOINT lankle
			{
				OFFSET -0.014790 -0.426874 -0.037428
				CHANNELS 3 Zrotation Yrotation Xrotation
				JOINT ltoe
				{
					OFFSET 0.041054 -0.060286 0.122042
					CHANNELS 3 Zrotation Yrotation Xrotation
					End Site
					{
						OFFSET 0.000000 0.000000 0.000000
					}
				}
			}
		}
	}
	JOINT rhip
	{
		OFFSET -0.060310 -0.090513 -0.013543
		CHANNELS 3 Zrotation Yrotation Xrotation
		JOINT rknee
		{
			OFFSET -0.043257 -0.383688 -0.004843
			CHANNELS 3 Zrotation Yrotation Xrotation
			JOINT rankle
			{
				OFFSET 0.019056 -0.420046 -0.034562
				CHANNELS 3 Zrotation Yrotation Xrotation
				JOINT rtoe
				{
					OFFSET -0.034840 -0.062106 0.130323
					CHANNELS 3 Zrotation Yrotation Xrotation
					End Site
					{
						OFFSET 0.000000 0.000000 0.000000
					}
				}
			}
		}
	}
	JOINT lowerback
	{
		OFFSET 0.004439 0.124404 -0.038385
		CHANNELS 3 Zrotation Yrotation Xrotation
		JOINT upperback
		{
			OFFSET 0.004488 0.137956 0.026820
			CHANNELS 3 Zrotation Yrotation Xrotation
			JOINT chest
			{
				OFFSET -0.002265 0.056032 0.002855
				CHANNELS 3 Zrotation Yrotation Xrotation
				JOINT lowerneck
				{
					OFFSET -0.013390 0.211636 -0.033468
					CHANNELS 3 Zrotation Yrotation Xrotation
					JOINT upperneck
					{
						OFFSET 0.010113 0.088937 0.050410
						CHANNELS 3 Zrotation Yrotation Xrotation
						End Site
						{
							OFFSET 0.000000 0.000000 0.000000
						}
					}
				}
				JOINT lclavicle
				{
					OFFSET 0.071702 0.114000 -0.018898
					CHANNELS 3 Zrotation Yrotation Xrotation
					JOINT lshoulder
					{
						OFFSET 0.122921 0.045205 -0.019046
						CHANNELS 3 Zrotation Yrotation Xrotation
						JOINT lelbow
						{
							OFFSET 0.255332 -0.015649 -0.022946
							CHANNELS 3 Zrotation Yrotation Xrotation
							JOINT lwrist
							{
								OFFSET 0.265709 0.012698 -0.007375
								CHANNELS 3 Zrotation Yrotation Xrotation
								End Site
								{
									OFFSET 0.000000 0.000000 0.000000
								}
							}
						}
					}
				}
				JOINT rclavicle
				{
					OFFSET -0.082954 0.112472 -0.023707
					CHANNELS 3 Zrotation Yrotation Xrotation
					JOINT rshoulder
					{
						OFFSET -0.113228 0.046853 -0.008472
						CHANNELS 3 Zrotation Yrotation Xrotation
						JOINT relbow
						{
							OFFSET -0.260127 -0.014369 -0.031269
							CHANNELS 3 Zrotation Yrotation Xrotation
							JOINT rwrist
							{
								OFFSET -0.269108 0.006794 -0.006027
								CHANNELS 3 Zrotation Yrotation Xrotation
								End Site
								{
									OFFSET 0.000000 0.000000 0.000000
								}
							}
						}
					}
				}
			}
		}
	}
}
MOTION
Frames: 10
Frame Time: 0.033333
0.356653 0.158801 0.989710 87.909554 0.212602 91.859184 5.091327 4.672636 3.913471 -3.783489 -1.114651 -6.216264 1.006904 8.356939 -3.176311 0.000000 -0.000000 0.000000 -5.632359 -4.366000 0.322692 2.093070 -2.132828 -0.260808 4.033008 -5.496524 -5.916974 0.000000 -0.000000 0.000000 -4.700608 2.862916 -7.753040 2.688835 -3.101042 13.205733 -0.238463 1.012989 -4.858184 3.297640 2.822126 5.426902 5.415492 -3.320759 -6.863862 -26.280759 -3.002621 -1.207618 -56.744770 -5.660496 19.787303 -0.626413 -20.724190 9.260395 -8.648519 -11.934242 11.369198 28.189752 5.550715 4.751296 56.155654 3.567174 14.688610 -7.535334 25.132299 -1.180705 3.953895 11.269859 3.751742 
0.356594 0.158788 0.989670 87.908124 0.217140 91.846080 5.093464 4.664761 3.925791 -3.778736 -1.118106 -6.221882 0.995352 8.364301 -3.177215 0.000000 -0.000000 0.000000 -5.627487 -4.357992 0.333708 2.092166 -2.122469 -0.267573 4.031497 -5.507705 -5.925854 0.000000 -0.000000 0.000000 -4.699011 2.850312 -7.727036 2.666290 -3.075506 13.148588 -0.233728 1.023621 -4.817353 3.287951 2.821979 5.354985 5.417211 -3.326699 -6.778180 -26.257838 -3.014587 -1.201980 -56.776745 -5.663114 19.756738 -0.627731 -20.713051 9.313511 -8.658360 -11.945212 11.362526 28.169450 5.540036 4.758779 56.194326 3.573907 14.694109 -7.579217 25.127038 -1.177902 3.939783 11.286287 3.740939 
0.356553 0.158739 0.989572 87.899746 0.229781 91.845823 5.111234 4.647186 3.940270 -3.772049 -1.099148 -6.239895 0.939107 8.382448 -3.181876 0.000000 -0.000000 0.000000 -5.608225 -4.312387 0.346213 2.081345 -2.128561 -0.281097 4.029486 -5.538584 -5.923575 0.000000 -0.000000 0.000000 -4.648784 2.799802 -7.713205 2.564574 -2.991744 13.087924 -0.217178 1.106852 -4.779149 3.304313 2.859712 5.279016 5.490029 -3.339002 -6.697099 -26.073807 -3.164301 -1.162275 -57.002695 -5.603264 19.689013 -0.529109 -20.667433 9.318276 -8.733950 -11.961535 11.423760 27.935240 5.827077 5.003029 56.556926 3.457922 14.801801 -7.872418 25.135896 -1.598299 3.690294 11.421728 3.433999 
0.356430 0.158726 0.989492 87.870153 0.233573 91.894349 5.112749 4.619421 3.922083 -3.776552 -1.048259 -6.222575 0.944662 8.340067 -3.182763 0.000000 -0.000000 0.000000 -5.596903 -4.214944 0.332039 2.062181 -2.253317 -0.269513 4.022913 -5.496091 -5.898834 0.000000 -0.000000 0.000000 -4.807847 2.820114 -7.808317 2.539339 -2.999405 13.372491 -0.103092 1.258239 -5.063903 3.526211 2.966884 5.395281 5.450976 -3.560181 -6.746718 -25.814744 -3.421485 -0.898349 -57.341457 -5.528778 19.685996 -0.233917 -20.798374 8.933923 -8.947684 -11.976932 11.576552 27.831819 6.895088 5.600506 56.985206 2.799492 15.125539 -8.963979 25.196649 -2.839523 3.382578 11.748174 2.735604 
0.356420 0.158762 0.989458 87.876113 0.234159 91.884740 5.114449 4.614023 3.938487 -3.776191 -1.050297 -6.219514 0.937727 8.338537 -3.186876 0.000000 -0.000000 0.000000 -5.595077 -4.209810 0.347972 2.059809 -2.247902 -0.267001 4.021478 -5.499251 -5.906146 0.000000 -0.000000 0.000000 -4.814409 2.821975 -7.808010 2.536218 -2.997013 13.392003 -0.102167 1.253176 -5.070559 3.523180 2.979153 5.392775 5.434448 -3.553905 -6.739471 -25.818037 -3.446298 -0.876589 -57.330641 -5.525589 19.669492 -0.224473 -20.814628 8.932347 -8.963848 -11.965290 11.575350 27.823685 6.913761 5.615164 56.995854 2.794859 15.124717 -8.981165 25.215538 -2.831292 3.371012 11.745608 2.733824 
0.356370 0.158785 0.989447 87.873660 0.229978 91.871142 5.108704 4.613991 3.950417 -3.776673 -1.056920 -6.224437 0.927045 8.354641 -3.177899 0.000000 -0.000000 0.000000 -5.601558 -4.211620 0.356913 2.060434 -2.241288 -0.263144 4.020945 -5.515450 -5.911007 0.000000 -0.000000 0.000000 -4.808563 2.815034 -7.807569 2.526144 -2.991765 13.389363 -0.116877 1.233832 -5.057606 3.509477 2.980890 5.400407 5.423829 -3.537728 -6.687581 -25.821111 -3.426999 -0.884121 -57.311846 -5.531758 19.665444 -0.223116 -20.816129 8.935587 -8.974729 -11.962759 11.550874 27.812693 6.861930 5.569616 56.989478 2.837381 15.127299 -8.926124 25.207344 -2.794341 3.390972 11.730194 2.729230 
0.356327 0.158854 0.989400 87.868621 0.227078 91.845456 5.117956 4.597017 3.982013 -3.788971 -1.073816 -6.223106 0.918034 8.372104 -3.169225 0.000000 -0.000000 0.000000 -5.611853 -4.229999 0.386632 2.071545 -2.214858 -0.275073 4.010515 -5.500281 -5.919845 0.000000 -0.000000 0.000000 -4.806615 2.831448 -7.843539 2.513427 -2.983786 13.470990 -0.141810 1.218277 -5.058355 3.500776 3.025858 5.359076 5.456193 -3.543451 -6.608066 -25.854388 -3.452741 -0.877426 -57.248496 -5.559532 19.622653 -0.235807 -20.770886 8.935058 -8.996111 -12.000075 11.535765 27.835251 6.775166 5.534483 56.944165 2.964120 15.083809 -8.836740 25.181011 -2.726421 3.494897 11.714156 2.721518 
0.356270 0.158942 0.989390 87.879077 0.226212 91.850416 5.121341 4.631638 3.956906 -3.792553 -1.070901 -6.196119 0.928388 8.395893 -3.175414 0.000000 -0.000000 0.000000 -5.599113 -4.262955 0.372388 2.049522 -2.153447 -0.281532 4.017766 -5.547341 -5.888831 0.000000 -0.000000 0.000000 -4.724148 2.831126 -7.842545 2.490205 -2.962453 13.384757 -0.217573 1.151877 -4.986271 3.429117 3.026318 5.368247 5.455353 -3.409314 -6.667503 -25.919223 -3.348156 -0.993734 -57.129146 -5.533704 19.645120 -0.302034 -20.750060 9.045996 -8.995650 -11.979809 11.546943 27.788368 6.419195 5.321225 56.915658 3.145599 15.011184 -8.469398 25.244835 -2.325328 3.610121 11.527206 3.023806 
0.356175 0.158999 0.989362 87.880405 0.234363 91.833211 5.138842 4.629013 3.973821 -3.804858 -1.092392 -6.220084 0.913086 8.390263 -3.161677 0.000000 -0.000000 0.000000 -5.600327 -4.289788 0.359419 2.057386 -2.104997 -0.259806 4.022788 -5.537565 -5.929477 0.000000 -0.000000 0.000000 -4.662851 2.829396 -7.816828 2.477382 -2.917365 13.301708 -0.258302 1.122182 -4.915633 3.390739 2.972073 5.308657 5.459575 -3.374367 -6.594459 -26.007157 -3.300372 -1.027772 -57.024456 -5.540052 19.654168 -0.369190 -20.752393 9.161456 -8.879895 -11.989784 11.502830 27.734770 6.198544 5.183492 56.953932 3.257394 14.949925 -8.257615 25.235497 -2.024965 3.577576 11.486524 3.073901 
0.356146 0.158995 0.989370 87.909644 0.225420 91.827585 5.128379 4.611558 3.951904 -3.799473 -1.098125 -6.185145 0.897892 8.388142 -3.176273 0.000000 -0.000000 0.000000 -5.604049 -4.305591 0.374489 2.053314 -2.106537 -0.272480 4.028271 -5.549394 -5.916922 0.000000 -0.000000 0.000000 -4.677112 2.830310 -7.775994 2.470598 -2.917003 13.211496 -0.247292 1.105229 -4.872841 3.381543 2.927319 5.271824 5.459693 -3.432401 -6.607363 -25.997537 -3.264841 -1.030134 -57.042579 -5.560204 19.660239 -0.382881 -20.712825 9.167094 -8.858178 -11.981393 11.449349 27.695562 6.163393 5.140689 57.051229 3.231402 14.963251 -8.263360 25.244847 -1.966289 3.500660 11.420676 3.038937 
